P2
9 9
255
0 0 0 0 0 0 0 0 0 
0 85 85 85 85 85 85 85 0 
0 85 0 0 0 0 0 85 0 
0 85 0 0 170 0 0 85 0 
0 85 0 170 255 170 0 85 0 
0 85 0 0 170 0 0 85 0 
0 85 0 0 0 0 0 85 0 
0 85 85 85 85 85 85 85 0 
0 0 0 0 0 0 0 0 0
