P2
64 54
255
0 0 0 0 0 0 0 0 0 0 0 0 0 0 0 0 0 0 0 0 0 0 0 0 0 0 0 0 0 0 0 0 0 0 0 0 0 0 0 0 0 0 0 0 0 0 0 0 0 0 0 0 0 0 0 0 0 0 0 0 0 0 0 0 0 0 0 0 0 0 0 0 0 0 0 0 0 0 0 0 0 0 0 0 0 0 0 0 0 0 0 0 0 0 0 0 0 0 0 0 0 0 0 0 0 0 0 0 0 0 0 0 0 0 0 0 0 0 0 0 0 0 0 0 0 0 0 0 0 0 0 0 0 0 0 0 0 0 0 0 0 0 0 0 0 0 0 0 0 0 0 0 0 0 0 0 0 0 0 0 0 0 0 0 0 0 0 0 0 0 0 0 0 0 0 0 0 0 0 0 0 0 0 0 0 0 0 0 0 0 0 0 0 0 0 0 0 0 0 0 0 0 0 0 0 0 0 0 0 0 0 0 0 0 0 0 0 0 0 0 0 0 0 0 0 0 0 0 0 0 0 0 0 0 0 0 0 0 0 0 0 0 0 0 0 0 0 0 0 0 0 0 0 0 0 0 0 0 0 0 0 0 0 0 0 0 0 0 0 0 0 0 0 0 0 0 0 0 0 0 0 0 0 0 0 0 0 0 0 0 0 0 0 0 0 0 0 0 0 0 0 0 0 0 0 0 0 0 0 0 0 0 0 0 0 0 0 0 0 0 0 0 0 0 0 0 0 0 0 0 0 0 0 0 0 0 0 0 0 0 0 0 0 0 0 0 0 0 0 0 0 0 0 0 0 0 0 0 0 0 0 0 0 0 0 0 0 0 0 0 0 0 0 0 0 0 0 0 0 0 0 0 0 0 0 0 0 0 0 0 0 0 0 0 0 0 0 0 0 0 0 0 0 0 0 0 0 0 0 0 0 0 0 0 0 0 0 0 0 0 0 0 0 0 0 0 0 0 0 0 0 0 0 0 0 0 0 0 0 0 0 0 0 0 0 0 0 0 0 0 0 0 0 0 0 0 0 0 0 0 0 0 0 0 0 0 0 0 0 0 0 0 0 0 0 0 0 0 0 0 0 0 0 0 0 0 0 0 0 0 0 0 0 0 0 0 0 0 0 0 0 0 0 0 0 0 0 0 0 0 0 0 0 0 0 0 0 0 0 0 0 0 0 0 0 0 0 0 0 0 0 0 0 0 0 0 0 0 0 0 0 0 0 0 0 0 0 0 0 0 0 0 0 0 0 0 0 0 0 0 0 0 0 0 0 0 0 0 0 0 0 0 0 0 0 0 0 0 0 0 0 0 0 0 0 0 0 0 0 0 0 0 0 0 0 0 0 0 0 0 0 0 0 0 0 0 0 0 0 0 0 0 0 0 0 0 0 0 0 0 0 0 0 0 0 0 0 0 0 0 0 0 0 0 0 0 0 0 0 0 0 0 0 0 0 0 0 0 0 0 0 0 0 0 0 0 0 0 0 0 0 0 0 0 0 0 0 0 0 0 0 0 0 0 0 0 0 0 0 0 0 0 0 0 0 0 0 0 0 0 0 0 0 0 0 0 0 0 0 0 0 0 0 0 0 0 0 0 0 0 0 0 0 0 0 0 0 0 0 0 0 0 0 0 0 0 0 0 0 0 0 0 0 0 0 0 0 0 0 0 0 0 0 0 0 0 0 0 0 0 0 0 0 0 0 0 0 0 0 0 0 0 0 0 0 0 0 0 0 0 0 0 0 0 0 0 0 0 0 0 0 0 0 0 0 0 0 0 0 0 0 0 0 0 0 0 0 0 0 0 0 0 0 0 0 0 0 0 0 0 0 0 0 0 0 0 0 0 0 0 0 0 0 0 0 0 0 0 0 0 0 0 0 0 0 0 0 0 0 0 0 0 0 0 0 0 0 0 0 0 0 0 0 0 0 0 0 0 0 0 0 0 0 0 0 0 0 0 0 0 0 0 0 0 0 0 0 0 0 0 0 0 0 0 0 0 0 0 0 0 0 0 0 0 0 0 0 0 0 0 0 0 0 0 0 0 0 0 0 0 0 0 0 0 0 0 0 0 0 0 0 0 0 0 0 0 0 0 0 0 0 0 0 0 0 0 0 0 0 0 0 0 0 0 0 0 0 0 0 0 0 0 0 0 0 0 0 0 0 0 0 0 0 0 0 0 0 0 249 250 250 250 253 252 253 0 0 0 0 0 0 251 251 251 251 251 251 251 251 251 251 251 252 252 253 253 254 254 254 254 253 253 253 253 253 254 254 254 253 254 254 254 254 254 0 0 0 0 0 0 0 0 0 0 0 0 0 0 0 0 0 0 250 251 250 251 253 253 254 0 0 0 0 0 0 251 251 250 250 250 250 250 250 251 251 251 251 252 252 253 253 253 253 253 253 253 253 253 253 254 254 254 253 254 254 254 254 254 0 0 0 0 0 0 0 0 0 0 0 0 0 0 0 0 0 0 250 251 251 251 254 253 254 0 0 0 0 0 0 251 251 250 250 250 250 250 250 250 250 250 251 251 252 252 253 253 253 253 253 253 253 253 253 253 254 254 253 254 254 254 254 254 0 0 0 0 0 0 0 0 0 0 0 0 0 0 0 0 0 0 251 252 251 252 254 254 255 0 0 0 0 0 0 250 250 250 250 250 250 250 250 250 250 250 250 251 251 252 252 252 252 252 252 252 252 252 252 253 253 253 252 253 253 253 253 253 0 0 0 0 0 0 0 0 0 0 0 0 0 0 0 0 0 0 250 252 251 251 254 254 255 0 0 0 0 0 0 250 250 249 249 249 249 249 249 249 249 249 250 250 251 251 252 252 252 252 252 252 252 252 252 252 253 253 252 253 253 253 253 253 0 0 0 0 0 0 0 0 0 0 0 0 0 0 0 0 0 0 250 251 251 251 254 253 254 0 0 0 0 0 0 249 249 248 248 248 248 248 248 249 249 249 249 250 250 251 251 252 251 251 251 251 251 251 251 252 252 252 251 252 252 252 252 252 0 0 0 0 0 0 0 0 0 0 0 0 0 0 0 0 0 0 250 251 251 251 254 253 254 0 0 0 0 0 0 249 249 248 248 248 248 248 248 248 248 248 249 249 250 250 251 251 251 251 251 251 251 251 251 252 252 252 251 252 252 252 252 252 0 0 0 0 0 0 0 0 0 0 0 0 0 0 0 0 0 0 250 251 250 251 253 253 254 0 0 0 0 0 0 250 252 251 251 254 254 255 0 0 0 0 0 0 250 252 251 251 254 254 255 0 0 0 0 0 0 250 252 251 251 254 254 255 0 0 0 0 0 0 0 0 0 0 0 0 0 0 0 0 0 0 249 250 250 250 253 252 253 0 0 0 0 0 0 250 251 251 251 254 253 254 0 0 0 0 0 0 250 251 251 251 254 253 254 0 0 0 0 0 0 250 251 251 251 254 253 254 0 0 0 0 0 0 0 0 0 0 0 0 0 0 0 0 0 0 249 250 249 250 252 252 253 0 0 0 0 0 0 250 251 250 251 254 253 254 0 0 0 0 0 0 250 251 250 251 254 253 254 0 0 0 0 0 0 250 251 250 251 254 253 254 0 0 0 0 0 0 0 0 0 0 0 0 0 0 0 0 0 0 248 249 249 249 252 251 252 0 0 0 0 0 0 250 251 250 251 253 253 254 0 0 0 0 0 0 250 251 250 251 253 253 254 0 0 0 0 0 0 250 251 250 251 253 253 254 0 0 0 0 0 0 0 0 0 0 0 0 0 0 0 0 0 0 248 249 248 249 251 251 252 0 0 0 0 0 0 249 251 250 250 253 253 254 0 0 0 0 0 0 249 251 250 250 253 253 254 0 0 0 0 0 0 249 251 250 250 253 253 254 0 0 0 0 0 0 0 0 0 0 0 0 0 0 0 0 0 0 247 249 248 248 251 251 252 0 0 0 0 0 0 249 250 250 250 253 252 253 0 0 0 0 0 0 249 250 250 250 253 252 253 0 0 0 0 0 0 249 250 250 250 253 252 253 0 0 0 0 0 0 0 0 0 0 0 0 0 0 0 0 0 0 247 248 248 248 251 250 251 0 0 0 0 0 0 249 250 249 249 252 252 253 0 0 0 0 0 0 249 250 249 249 252 252 253 0 0 0 0 0 0 249 250 249 249 252 252 253 0 0 0 0 0 0 0 0 0 0 0 0 0 0 0 0 0 0 247 248 248 248 251 250 251 0 0 0 0 0 0 248 250 249 249 252 252 253 0 0 0 0 0 0 248 250 249 249 252 252 253 0 0 0 0 0 0 248 250 249 249 252 252 253 0 0 0 0 0 0 0 0 0 0 0 0 0 0 0 0 0 0 247 248 247 248 250 250 251 0 0 0 0 0 0 248 249 248 249 252 251 252 0 0 0 0 0 0 248 249 248 249 252 251 252 0 0 0 0 0 0 248 249 248 249 252 251 252 0 0 0 0 0 0 0 0 0 0 0 0 0 0 0 0 0 0 246 248 247 247 250 250 251 0 0 0 0 0 0 248 249 248 249 251 251 252 0 0 0 0 0 0 248 249 248 249 251 251 252 0 0 0 0 0 0 248 249 248 249 251 251 252 0 0 0 0 0 0 0 0 0 0 0 0 0 0 0 0 0 0 246 247 247 247 250 249 250 0 0 0 0 0 0 247 249 248 248 251 251 252 0 0 0 0 0 0 247 249 248 248 251 251 252 0 0 0 0 0 0 247 249 248 248 251 251 252 0 0 0 0 0 0 0 0 0 0 0 0 0 0 0 0 0 0 246 247 247 247 250 249 250 0 0 0 0 0 0 247 249 248 248 251 251 252 0 0 0 0 0 0 247 249 248 248 251 251 252 0 0 0 0 0 0 247 249 248 248 251 251 252 0 0 0 0 0 0 0 0 0 0 0 0 0 0 0 0 0 0 246 247 246 247 249 249 250 0 0 0 0 0 0 247 248 248 248 251 250 251 0 0 0 0 0 0 247 248 248 248 251 250 251 0 0 0 0 0 0 247 248 248 248 251 250 251 0 0 0 0 0 0 0 0 0 0 0 0 0 0 0 0 0 0 246 247 246 247 249 249 250 0 0 0 0 0 0 247 248 247 248 251 250 251 0 0 0 0 0 0 247 248 247 248 251 250 251 0 0 0 0 0 0 247 248 247 248 251 250 251 0 0 0 0 0 0 0 0 0 0 0 0 0 0 0 0 0 0 246 247 246 247 249 249 250 0 0 0 0 0 0 247 248 247 248 250 250 251 0 0 0 0 0 0 247 248 247 248 250 250 251 0 0 0 0 0 0 247 248 247 248 250 250 251 0 0 0 0 0 0 0 0 0 0 0 0 0 0 0 0 0 0 246 247 246 247 249 249 250 0 0 0 0 0 0 247 248 247 247 250 250 251 0 0 0 0 0 0 247 248 247 247 250 250 251 0 0 0 0 0 0 247 248 247 247 250 250 251 0 0 0 0 0 0 0 0 0 0 0 0 0 0 0 0 0 0 246 247 246 247 249 249 250 0 0 0 0 0 0 246 248 247 247 250 250 251 0 0 0 0 0 0 246 248 247 247 250 250 251 0 0 0 0 0 0 246 248 247 247 250 250 251 0 0 0 0 0 0 0 0 0 0 0 0 0 0 0 0 0 0 0 0 0 0 0 0 0 0 0 0 0 0 0 246 247 247 247 250 249 250 0 0 0 0 0 0 246 247 247 247 250 249 250 0 0 0 0 0 0 246 247 247 247 250 249 250 0 0 0 0 0 0 0 0 0 0 0 0 0 0 0 0 0 0 0 0 0 0 0 0 0 0 0 0 0 0 0 246 247 247 247 250 249 250 0 0 0 0 0 0 246 247 247 247 250 249 250 0 0 0 0 0 0 246 247 247 247 250 249 250 0 0 0 0 0 0 0 0 0 0 0 0 0 0 0 0 0 0 250 252 251 251 254 254 255 0 0 0 0 0 0 246 247 246 247 250 249 250 0 0 0 0 0 0 246 247 246 247 250 249 250 0 0 0 0 0 0 246 247 246 247 250 249 250 0 0 0 0 0 0 0 0 0 0 0 0 0 0 0 0 0 0 250 251 251 251 254 253 254 0 0 0 0 0 0 246 247 247 247 250 249 250 0 0 0 0 0 0 246 247 247 247 250 249 250 0 0 0 0 0 0 246 247 247 247 250 249 250 0 0 0 0 0 0 0 0 0 0 0 0 0 0 0 0 0 0 249 250 250 250 253 252 253 0 0 0 0 0 0 246 247 246 247 249 249 250 0 0 0 0 0 0 246 247 246 247 249 249 250 0 0 0 0 0 0 246 247 246 247 249 249 250 0 0 0 0 0 0 0 0 0 0 0 0 0 0 0 0 0 0 248 249 248 248 251 251 252 0 0 0 0 0 0 246 247 246 247 249 249 250 0 0 0 0 0 0 246 247 246 247 249 249 250 0 0 0 0 0 0 246 247 246 247 249 249 250 0 0 0 0 0 0 0 0 0 0 0 0 0 0 0 0 0 0 247 248 247 247 250 250 251 0 0 0 0 0 0 246 247 246 247 249 249 250 0 0 0 0 0 0 246 247 246 247 249 249 250 0 0 0 0 0 0 246 247 246 247 249 249 250 0 0 0 0 0 0 0 0 0 0 0 0 0 0 0 0 0 0 247 248 247 247 250 250 251 0 0 0 0 0 0 246 247 246 247 249 249 250 0 0 0 0 0 0 246 247 246 247 249 249 250 0 0 0 0 0 0 246 247 246 247 249 249 250 0 0 0 0 0 0 0 0 0 0 0 0 0 0 0 0 0 0 246 247 246 247 249 249 250 0 0 0 0 0 0 246 247 246 247 249 249 250 0 0 0 0 0 0 246 247 246 247 249 249 250 0 0 0 0 0 0 246 247 246 247 249 249 250 0 0 0 0 0 0 0 0 0 0 0 0 0 0 0 0 0 0 0 0 0 0 0 0 0 0 0 0 0 0 0 0 0 0 0 0 0 0 0 0 0 0 0 0 0 0 0 0 0 0 0 0 0 0 0 0 0 0 0 0 0 0 0 0 0 0 0 0 0 0 0 0 0 0 0 0 0 0 0 0 0 0 0 0 0 0 0 0 0 0 0 0 0 0 0 0 0 0 0 0 0 0 0 0 0 0 0 0 0 0 0 0 0 0 0 0 0 0 0 0 0 0 0 0 0 0 0 0 0 0 0 0 0 0 0 0 0 0 0 0 0 0 0 0 0 0 0 0 0 0 0 0 0 0 0 0 0 0 0 0 0 0 0 0 0 0 0 0 0 0 0 0 0 0 0 0 0 0 0 0 0 0 0 0 0 0 0 0 0 0 0 0 0 0 0 0 0 0 0 0 0 0 0 0 0 0 0 0 0 0 0 0 0 0 0 0 0 0 0 0 0 0 0 0 0 0 0 0 0 0 0 0 0 0 0 0 0 0 0 0 0 0 0 0 0 0 0 0 0 0 0 0 0 0 0 0 0 0 0 0 0 0 0 0 0 0 0 0 0 0 0 0 0 0 0 0 0 0 0 0 0 0 0 0 0 0 0 0 0 0 0 0 0 0 0 0 0 0 0 0 0 0 0 0 0 0 0 0 0 0 0 0 0 0 0 0 0 0 0 0 0 0 0 0 0 0 0 0 0 0 0 0 0 0 0 0 0 0 0 0 0 0 0 0 0 0 0 0 0 0 0 0 0 0 0 0 0 0 0 0 0 0 0 0 0 0 0 0 0 0 0 0 0 0 0 0 0 0 0 0 0 0 0 0 0 0 0 0 0 0 0 0 0 0 